<svg xmlns="http://www.w3.org/2000/svg" width="100" height="30" viewBox="0 0 100 30"><defs><style>.a,.b{fill:#3c5b9b;}.b{opacity:0.95;}.c{fill:#fff;}</style></defs><rect class="a" width="30" height="30"/><rect class="b" width="70" height="30" transform="translate(30)"/><g transform="translate(10.3 5)"><path class="c" d="M12.3,25h4.2V15h2.8l.4-3.5H16.5V9.4c0-.8.5-1,.9-1h2.2V5H16.5a3.932,3.932,0,0,0-4.2,4.2v2.3h-2V15h2C12.3,19.5,12.3,25,12.3,25Z" transform="translate(-10.3 -5)"/></g><g transform="translate(-55)"><path class="c" d="M99.8,11.4h4.4v.9h-3.3V15H104v.9h-3.1v3.7h-1V11.4Z"/><path class="c" d="M108.3,19.5l-.1-.7h0a2,2,0,0,1-1.8.9,1.654,1.654,0,0,1-1.8-1.7c0-1.4,1.2-2.2,3.5-2.2v-.1a1.14,1.14,0,0,0-1.3-1.3,3.707,3.707,0,0,0-1.5.4l-.2-.7a3.83,3.83,0,0,1,1.9-.5c1.8,0,2.2,1.2,2.2,2.4v2.2a6.15,6.15,0,0,0,.1,1.4h-1Zm-.2-3c-1.2,0-2.5.2-2.5,1.3a.942.942,0,0,0,1,1,1.44,1.44,0,0,0,1.4-1c0-.1.1-.2.1-.3Z"/><path class="c" d="M115,19.3a5.168,5.168,0,0,1-1.7.3,2.757,2.757,0,0,1-2.9-3,2.939,2.939,0,0,1,3.1-3.1,4.912,4.912,0,0,1,1.5.3l-.2.8a2.959,2.959,0,0,0-1.2-.3,2.075,2.075,0,0,0-2.1,2.2,2.058,2.058,0,0,0,2,2.2,3.548,3.548,0,0,0,1.3-.3Z"/><path class="c" d="M116.7,16.8a1.837,1.837,0,0,0,2,2,3.233,3.233,0,0,0,1.6-.3l.2.8a4.14,4.14,0,0,1-1.9.4,2.729,2.729,0,0,1-2.9-2.9c0-1.8,1-3.1,2.7-3.1a2.461,2.461,0,0,1,2.4,2.7v.5h-4.1Zm3.1-.8a1.506,1.506,0,0,0-1.5-1.7,1.727,1.727,0,0,0-1.6,1.7Z"/><path class="c" d="M122.1,19.5V11h1v3.6h0a2.273,2.273,0,0,1,2-1.1c1.4,0,2.5,1.2,2.4,3,0,2.1-1.3,3.1-2.6,3.1a1.967,1.967,0,0,1-1.9-1.1h0v1Zm1.1-2.3v.4a1.621,1.621,0,0,0,1.6,1.2c1.1,0,1.8-.9,1.8-2.2,0-1.2-.6-2.2-1.7-2.2a1.687,1.687,0,0,0-1.6,1.3c0,.1-.1.3-.1.4v1.1Z"/><path class="c" d="M134.2,16.5a2.888,2.888,0,0,1-2.9,3.1,2.788,2.788,0,0,1-2.8-3,2.893,2.893,0,0,1,2.9-3.1A2.842,2.842,0,0,1,134.2,16.5Zm-4.6.1c0,1.3.7,2.2,1.8,2.2,1,0,1.8-.9,1.8-2.3,0-1-.5-2.2-1.7-2.2A2.061,2.061,0,0,0,129.6,16.6Z"/><path class="c" d="M140.8,16.5a2.888,2.888,0,0,1-2.9,3.1,2.788,2.788,0,0,1-2.8-3,2.893,2.893,0,0,1,2.9-3.1A2.842,2.842,0,0,1,140.8,16.5Zm-4.6.1c0,1.3.7,2.2,1.8,2.2,1,0,1.8-.9,1.8-2.3,0-1-.5-2.2-1.7-2.2A2.061,2.061,0,0,0,136.2,16.6Z"/><path class="c" d="M143.2,16.4h0a3.039,3.039,0,0,0,.5-.7l1.7-2h1.3l-2.2,2.4,2.6,3.4h-1.3l-2-2.8-.5.6v2.2h-1V11h1v5.4Z"/></g></svg>