<svg xmlns="http://www.w3.org/2000/svg" width="100" height="30" viewBox="0 0 100 30"><defs><style>.a,.b{fill:#f63d27;}.b{opacity:0.9;}.c{fill:#fff;}</style></defs><rect class="a" width="30" height="30"/><rect class="b" width="70" height="30" transform="translate(30)"/><g transform="translate(5 6)"><path class="c" d="M20.3,18.4h.9a.43.43,0,0,0,.4-.4V15h3a.43.43,0,0,0,.4-.4v-.9a.43.43,0,0,0-.4-.4h-3v-3a.43.43,0,0,0-.4-.4h-.9a.43.43,0,0,0-.4.4v3h-3a.43.43,0,0,0-.4.4v.9a.43.43,0,0,0,.4.4h3v3A.366.366,0,0,0,20.3,18.4Z" transform="translate(-5 -6)"/><path class="c" d="M8.4,23.7a9.863,9.863,0,0,0,2.4.3,7.8,7.8,0,0,0,2.2-.3,4.4,4.4,0,0,0,3.5-4,4.331,4.331,0,0,0-2-3.8,3.294,3.294,0,0,1-1.2-1.3c0-.4,0-.5.9-1.2a3.814,3.814,0,0,0,1.7-3.1A4,4,0,0,0,15,7.6h.4c.1,0,.2,0,.2-.1l1.2-.9a.764.764,0,0,0,.2-.5c-.2,0-.3-.1-.5-.1H11.2a5.663,5.663,0,0,0-1.8.3,4.644,4.644,0,0,0-3.3,4,4.332,4.332,0,0,0,4.3,4.3c0,.2-.1.4-.1.6a2.279,2.279,0,0,0,.3,1.1h-.1a5.784,5.784,0,0,0-5.3,2.9A5.067,5.067,0,0,0,5,20.5a3.079,3.079,0,0,0,.3,1.3A5.18,5.18,0,0,0,8.4,23.7Zm.5-13.4a3.029,3.029,0,0,1,.5-2.2,1.606,1.606,0,0,1,1.1-.5h0c1.2,0,2.3,1.3,2.5,2.9a3.029,3.029,0,0,1-.5,2.2,1.433,1.433,0,0,1-1.1.5h0C10.2,13.2,9.1,11.8,8.9,10.3Zm2.2,7.2h0a5.019,5.019,0,0,1,1.2.2.52.52,0,0,0,.4.2c.8.6,1.4.9,1.5,1.6,0,.2.1.3.1.5,0,1.6-1.2,2.3-3.4,2.3-1.7,0-3.1-1.1-3.1-2.4C7.7,18.6,9.3,17.5,11.1,17.5Z" transform="translate(-5 -6)"/></g><g transform="translate(-55)"><path class="c" d="M106,19.1a7.166,7.166,0,0,1-2.5.4,3.994,3.994,0,0,1-3-1.1,4.248,4.248,0,0,1-1.1-3,4.1,4.1,0,0,1,4.4-4.2,4.3,4.3,0,0,1,2,.4l-.3.9a4.178,4.178,0,0,0-1.8-.3,3.048,3.048,0,0,0-3.3,3.3c0,2.1,1.2,3.3,3.1,3.3a3.709,3.709,0,0,0,1.4-.2V16.2h-1.6v-.8H106v3.7Z"/><path class="c" d="M112.8,16.5a2.888,2.888,0,0,1-2.9,3.1,2.788,2.788,0,0,1-2.8-3,2.893,2.893,0,0,1,2.9-3.1A2.842,2.842,0,0,1,112.8,16.5Zm-4.6.1c0,1.3.7,2.2,1.8,2.2,1,0,1.8-.9,1.8-2.3,0-1-.5-2.2-1.7-2.2A2.061,2.061,0,0,0,108.2,16.6Z"/><path class="c" d="M119.4,16.5a2.888,2.888,0,0,1-2.9,3.1,2.788,2.788,0,0,1-2.8-3,2.893,2.893,0,0,1,2.9-3.1A2.842,2.842,0,0,1,119.4,16.5Zm-4.6.1c0,1.3.7,2.2,1.8,2.2,1,0,1.8-.9,1.8-2.3,0-1-.5-2.2-1.7-2.2C115.3,14.3,114.8,15.5,114.8,16.6Z"/><path class="c" d="M125.8,13.7v5a3.952,3.952,0,0,1-.8,2.7,3.322,3.322,0,0,1-2.1.7,3.557,3.557,0,0,1-1.9-.5l.3-.8a3.8,3.8,0,0,0,1.7.5,1.766,1.766,0,0,0,1.9-2v-.6h0a2.059,2.059,0,0,1-1.8,1,2.617,2.617,0,0,1-2.5-2.8c0-2,1.3-3.1,2.6-3.1a1.827,1.827,0,0,1,1.8,1h0v-.9h.8ZM124.7,16a.9.9,0,0,0-.1-.5,1.529,1.529,0,0,0-1.5-1.1c-1,0-1.7.9-1.7,2.2,0,1.1.6,2.1,1.7,2.1a1.687,1.687,0,0,0,1.5-1.1,1.268,1.268,0,0,0,.1-.6Z"/><path class="c" d="M127.5,11h1.1v8.5h-1.1V11Z"/><path class="c" d="M130.9,16.8a1.837,1.837,0,0,0,2,2,3.234,3.234,0,0,0,1.6-.3l.2.8a4.14,4.14,0,0,1-1.9.4,2.729,2.729,0,0,1-2.9-2.9c0-1.7,1-3.1,2.7-3.1a2.461,2.461,0,0,1,2.4,2.7v.5h-4.1ZM134,16a1.506,1.506,0,0,0-1.5-1.7,1.727,1.727,0,0,0-1.6,1.7Z"/></g></svg>